# xmcd CD database file
#
# Track frame offsets:
#	150
#	15681
#	25641
#	39442
#	52471
#	68737
#	86581
#	101891
#	117077
#	139634
#	147333
#
# Disc length: 2146 seconds
#
# Revision: 0
# Processed by: cddbd v1.5.1PL0 Copyright (c) Steve Scherf et al.
# Submitted via: CDex 1.51
#
DISCID=9608600b
DTITLE=Eagles - Desperado
DYEAR=1973
DGENRE=Country
TTITLE0=Doolin-Dalton
TTITLE1=Twenty One
TTITLE2=Out of Control
TTITLE3=Tequila Sunrise
TTITLE4=Desperado
TTITLE5=Certain Kind of Fool
TTITLE6=Outlaw Man
TTITLE7=Saturday Night
TTITLE8=Bitter Creek
TTITLE9=Doolin-Dalton (reprise)
TTITLE10=Desperado (reprise)
EXTD=YEAR: 1973
EXTT0=
EXTT1=
EXTT2=
EXTT3=
EXTT4=
EXTT5=
EXTT6=
EXTT7=
EXTT8=
EXTT9=
EXTT10=
PLAYORDER=
